<?xml version="1.0" encoding="UTF-8"?>
<svg version="1.1" xmlns="http://www.w3.org/2000/svg" width="512" height="512">
<path d="M0 0 C2.3698578 1.83478882 2.3698578 1.83478882 4.5546875 1.40576172 C6.97026671 0.4641246 8.12268397 -0.62848276 9.8828125 -2.5234375 C10.79377686 -3.48092896 10.79377686 -3.48092896 11.72314453 -4.45776367 C12.3623584 -5.13685791 13.00157227 -5.81595215 13.66015625 -6.515625 C25.03643882 -18.18709231 36.44861858 -25.32593242 53.13525391 -25.81030273 C67.65618854 -25.90796518 80.84706562 -22.48077852 91.84375 -12.33203125 C101.92500814 -1.17304396 108.1051741 11.85820221 107.80859375 27.19140625 C106.26875971 44.84246683 98.84145664 56.77638409 86.31640625 68.7578125 C85.76227051 69.2940625 85.20813477 69.8303125 84.63720703 70.3828125 C83.54377083 71.43487197 82.43818638 72.47447676 81.31982422 73.5 C79.61417378 75.07592781 79.61417378 75.07592781 77.59765625 77.609375 C77.94706527 80.76656391 79.32634643 83.05468145 81.00390625 85.70703125 C81.49616699 86.49851562 81.98842773 87.29 82.49560547 88.10546875 C83.02428223 88.95238281 83.55295898 89.79929687 84.09765625 90.671875 C93.78799612 106.57871384 101.10847702 122.49553679 105.59765625 140.609375 C105.77554687 141.30192383 105.9534375 141.99447266 106.13671875 142.70800781 C112.76732971 169.69091074 109.24142296 199.21830141 100.90234375 225.28125 C100.56323975 226.4103479 100.56323975 226.4103479 100.21728516 227.56225586 C99.69935582 229.27338175 99.13104872 230.96915291 98.55078125 232.66015625 C98.62737181 237.47897903 101.56657257 240.37233485 104.47265625 244.046875 C105.6867417 245.65420042 106.89633832 247.26492571 108.1015625 248.87890625 C108.9989917 250.07700928 108.9989917 250.07700928 109.91455078 251.29931641 C129.45501891 278.1185664 141.04523817 311.19504709 146.59765625 343.609375 C146.78457031 344.60445068 146.97148437 345.59952637 147.1640625 346.62475586 C149.20627004 359.12689515 148.96980898 371.76501957 148.96826172 384.39916992 C148.96805722 387.76222658 148.99556023 391.12445076 149.02980614 394.48730946 C149.0575494 397.74280898 149.05622554 400.99830471 149.05859375 404.25390625 C149.07296478 405.44579056 149.08733582 406.63767487 149.10214233 407.86567688 C149.04402614 418.55767774 146.42476443 426.73299108 139.01171875 434.5625 C130.59813764 441.69634547 121.58720675 443.76930247 110.82545757 443.73800945 C110.05808597 443.73976249 109.29071437 443.74151553 108.50008908 443.74332169 C105.92571575 443.74797795 103.35139899 443.74551714 100.77702332 443.74308777 C98.91384898 443.74495593 97.05067505 443.74725665 95.18750173 443.74995309 C90.06491752 443.75607687 84.94234962 443.75593682 79.81976259 443.75475872 C74.29612435 443.75455486 68.77249138 443.76007205 63.24885559 443.76481628 C52.4261176 443.77312651 41.60338506 443.77587129 30.78064414 443.77642866 C21.98461944 443.77690364 13.18859654 443.77895745 4.3925724 443.78212929 C-16.48137426 443.78950337 -37.35531995 443.795654 -58.22926807 443.79513073 C-58.89679785 443.79511515 -59.56432762 443.79509957 -60.25208558 443.79508352 C-63.63538923 443.79500041 -67.01869288 443.79490137 -70.40199653 443.79479881 C-71.07393044 443.79477887 -71.74586436 443.79475892 -72.43815991 443.79473837 C-73.79697395 443.79469794 -75.155788 443.79465614 -76.51460204 443.79461298 C-97.65565628 443.79400022 -118.79669449 443.80150695 -139.93774414 443.81518555 C-163.69072155 443.83054777 -187.44368998 443.83913902 -211.19667357 443.83822232 C-223.77299235 443.83789014 -236.34929304 443.84064685 -248.92560768 443.85140038 C-259.63263188 443.86049678 -270.33962979 443.86268769 -281.04665617 443.85589095 C-286.50997511 443.85262144 -291.9732436 443.85258464 -297.43655777 443.8612442 C-302.4385134 443.869091 -307.44037839 443.86769638 -312.44233175 443.85896007 C-314.25118388 443.85742107 -316.0600427 443.85925626 -317.86888693 443.86482015 C-331.7729576 443.90475323 -343.5268491 443.50246757 -354.44921875 433.7890625 C-362.58698517 425.19919794 -364.00833333 415.94026373 -363.8984375 404.46484375 C-363.89989273 403.21923172 -363.90134796 401.97361969 -363.90284729 400.69026184 C-363.90077347 397.39207716 -363.87988697 394.0946723 -363.85186768 390.79663086 C-363.83211144 387.5108779 -363.85046098 384.22522584 -363.86132812 380.93945312 C-363.84920538 366.25326244 -363.12499253 352.05292558 -360.40234375 337.609375 C-360.10444946 336.00292114 -360.10444946 336.00292114 -359.80053711 334.36401367 C-359.30708809 331.92717597 -358.75682389 329.52077051 -358.15234375 327.109375 C-357.94254883 326.25738525 -357.73275391 325.40539551 -357.51660156 324.52758789 C-350.44993357 296.70704394 -338.76628501 271.06357612 -322.21484375 247.609375 C-321.71895752 246.89652344 -321.22307129 246.18367188 -320.7121582 245.44921875 C-318.50533956 242.32939807 -316.37656878 239.58374669 -313.65625 236.87890625 C-310.9365733 234.0699134 -309.52071688 232.37937475 -308.40234375 228.609375 C-309.04505159 221.88272935 -311.43468556 215.47419559 -313.59423828 209.11132812 C-315.12648683 204.36737551 -315.82298235 199.54523316 -316.40234375 194.609375 C-316.51191406 193.76375 -316.62148438 192.918125 -316.734375 192.046875 C-321.13477338 152.61930552 -309.3710081 113.80906204 -286.38671875 81.7734375 C-285.12695253 79.67634527 -285.12695253 79.67634527 -286.09570312 77.72265625 C-287.59153154 75.30339414 -289.26099065 73.59094698 -291.32421875 71.6328125 C-292.1028125 70.87871094 -292.88140625 70.12460938 -293.68359375 69.34765625 C-295.30957213 67.79114214 -296.93968844 66.23893737 -298.57421875 64.69140625 C-308.75511078 54.79517732 -314.70659084 43.66114243 -315.60546875 29.3828125 C-315.83225118 12.94108648 -311.29280565 -0.07688587 -299.87890625 -12.1015625 C-289.35550537 -21.82823902 -277.8825894 -25.70066051 -263.77734375 -25.828125 C-262.90674316 -25.83835693 -262.03614258 -25.84858887 -261.13916016 -25.85913086 C-246.5495189 -25.66234547 -234.78130415 -19.40707114 -224.68164062 -9.109375 C-223.86759766 -8.2534375 -223.05355469 -7.3975 -222.21484375 -6.515625 C-221.35826172 -5.63648437 -220.50167969 -4.75734375 -219.61914062 -3.8515625 C-217.53482279 -1.7090235 -215.46321822 0.44431882 -213.40234375 2.609375 C-212.53996094 2.13628906 -211.67757812 1.66320312 -210.7890625 1.17578125 C-148.81197674 -32.54120397 -61.18000563 -44.57100066 0 0 Z " fill="#F0F5F6" transform="translate(363.40234375,48.390625)"/>
<path d="M0 0 C0.76103027 -0.00942627 1.52206055 -0.01885254 2.30615234 -0.02856445 C7.56616452 0.00366452 7.56616452 0.00366452 9.8125 2.25 C8.85214844 2.33636719 7.89179688 2.42273438 6.90234375 2.51171875 C-39.53163425 7.10028463 -81.68838185 26.84622087 -115.1875 59.25 C-115.68733398 59.72405273 -116.18716797 60.19810547 -116.70214844 60.68652344 C-128.8321671 72.20119556 -138.14515218 85.24442148 -147.1875 99.25 C-147.74018555 100.10368164 -148.29287109 100.95736328 -148.86230469 101.83691406 C-174.79936124 141.98333676 -193.24283685 183.17310024 -183.1875 232.25 C-176.24385192 263.32950174 -162.01001108 290.87820278 -139.1875 313.25 C-134.37558052 311.68167069 -129.60961376 310.03924357 -124.875 308.25 C-108.5186086 302.28981287 -92.24562863 300.9284909 -75.0078125 300.9140625 C-73.18228048 300.90762051 -71.35674945 300.90089116 -69.53121948 300.89389038 C-65.73074954 300.8819981 -61.93037001 300.87820188 -58.12988281 300.87939453 C-53.2711603 300.87959886 -48.41301517 300.85214347 -43.55443001 300.81785011 C-39.7951085 300.79558953 -36.03592714 300.7915565 -32.27654648 300.79261398 C-30.48485168 300.79026268 -28.69315274 300.78146579 -26.90152359 300.76594925 C-24.39894197 300.7462776 -21.89762295 300.75212803 -19.39501953 300.76416016 C-18.66449875 300.75292114 -17.93397797 300.74168213 -17.18132019 300.73010254 C-11.67201553 300.79716106 -8.63498715 302.23596905 -4.1875 305.25 C-0.93632786 308.92067823 -0.72202025 312.37785699 -0.90234375 317.10546875 C-1.48563245 321.49211937 -3.51186067 323.65675571 -6.75 326.5 C-10.79224106 329.40212179 -13.11722424 329.38262424 -18.10546875 329.40771484 C-18.8181189 329.41279556 -19.53076904 329.41787628 -20.26501465 329.42311096 C-21.81788903 329.43382942 -23.370779 329.44244379 -24.92367554 329.44923019 C-27.39882306 329.46105128 -29.87379858 329.4805224 -32.34887695 329.50234985 C-39.38877416 329.56378539 -46.42866184 329.61756457 -53.46875 329.65136719 C-57.77657666 329.67260485 -62.08410234 329.7081521 -66.39175415 329.75212479 C-68.01799918 329.7660822 -69.64429762 329.77496019 -71.27059937 329.77817917 C-82.86716766 329.80351478 -93.80050327 331.08640971 -105.1875 333.25 C-107.18656425 333.58890006 -109.18620195 333.92455072 -111.1875 334.25 C-111.1875 334.91 -111.1875 335.57 -111.1875 336.25 C-110.64440186 336.42088135 -110.10130371 336.5917627 -109.54174805 336.76782227 C-103.86979177 338.59895495 -98.45407625 340.79404972 -93 343.1875 C-85.17421192 346.55061058 -77.47332721 349.21620605 -69.1875 351.25 C-68.35992187 351.46269531 -67.53234375 351.67539062 -66.6796875 351.89453125 C-57.10193401 354.2138827 -47.43054819 354.40364637 -37.61962891 354.42700195 C-36.40183746 354.43357315 -35.18404602 354.44014435 -33.92935181 354.44691467 C-29.92425271 354.46652155 -25.91919344 354.47830123 -21.9140625 354.48828125 C-20.52210854 354.49233725 -19.13015475 354.49645439 -17.73820114 354.50063133 C-11.19000704 354.519642 -4.64182387 354.53387857 1.90639246 354.5422433 C9.40327327 354.55198436 16.89985638 354.57823884 24.39663255 354.61874419 C30.2314956 354.64916113 36.06627457 354.66373627 41.9012152 354.66702431 C45.36710331 354.66934681 48.83267209 354.67793177 52.29847336 354.70348549 C71.84824408 354.82772749 90.00224109 353.48514318 108.5625 347 C109.4289917 346.70262939 110.2954834 346.40525879 111.18823242 346.09887695 C119.44708939 343.17508494 127.19364585 339.5621941 134.8125 335.25 C135.47056641 334.88036133 136.12863281 334.51072266 136.80664062 334.12988281 C166.09458795 317.42018919 184.34108819 292.55568505 199.8125 263.25 C228.35169957 290.18354587 243.36400817 334.60450472 249.8125 372.25 C249.99941406 373.24507568 250.18632812 374.24015137 250.37890625 375.26538086 C252.42111379 387.76752015 252.18465273 400.40564457 252.18310547 413.03979492 C252.18290097 416.40285158 252.21040398 419.76507576 252.24464989 423.12793446 C252.27239315 426.38343398 252.27106929 429.63892971 252.2734375 432.89453125 C252.28780853 434.08641556 252.30217957 435.27829987 252.31698608 436.50630188 C252.25886989 447.19830274 249.63960818 455.37361608 242.2265625 463.203125 C233.81298139 470.33697047 224.8020505 472.40992747 214.04030132 472.37863445 C213.27292972 472.38038749 212.50555812 472.38214053 211.71493283 472.38394669 C209.1405595 472.38860295 206.56624274 472.38614214 203.99186707 472.38371277 C202.12869273 472.38558093 200.2655188 472.38788165 198.40234548 472.39057809 C193.27976127 472.39670187 188.15719337 472.39656182 183.03460634 472.39538372 C177.5109681 472.39517986 171.98733513 472.40069705 166.46369934 472.40544128 C155.64096135 472.41375151 144.81822881 472.41649629 133.99548789 472.41705366 C125.19946319 472.41752864 116.40344029 472.41958245 107.60741615 472.42275429 C86.73346949 472.43012837 65.8595238 472.436279 44.98557568 472.43575573 C44.3180459 472.43574015 43.65051613 472.43572457 42.96275817 472.43570852 C39.57945452 472.43562541 36.19615087 472.43552637 32.81284722 472.43542381 C32.14091331 472.43540387 31.46897939 472.43538392 30.77668384 472.43536337 C29.4178698 472.43532294 28.05905575 472.43528114 26.70024171 472.43523798 C5.55918747 472.43462522 -15.58185074 472.44213195 -36.72290039 472.45581055 C-60.4758778 472.47117277 -84.22884623 472.47976402 -107.98182982 472.47884732 C-120.5581486 472.47851514 -133.13444929 472.48127185 -145.71076393 472.49202538 C-156.41778813 472.50112178 -167.12478604 472.50331269 -177.83181242 472.49651595 C-183.29513136 472.49324644 -188.75839985 472.49320964 -194.22171402 472.5018692 C-199.22366965 472.509716 -204.22553464 472.50832138 -209.227488 472.49958507 C-211.03634013 472.49804607 -212.84519895 472.49988126 -214.65404318 472.50544515 C-228.55811385 472.54537823 -240.31200535 472.14309257 -251.234375 462.4296875 C-259.37214142 453.83982294 -260.79348958 444.58088873 -260.68359375 433.10546875 C-260.68504898 431.85985672 -260.68650421 430.61424469 -260.68800354 429.33088684 C-260.68592972 426.03270216 -260.66504322 422.7352973 -260.63702393 419.43725586 C-260.61726769 416.1515029 -260.63561723 412.86585084 -260.64648438 409.58007812 C-260.63436163 394.89388744 -259.91014878 380.69355058 -257.1875 366.25 C-256.88960571 364.64354614 -256.88960571 364.64354614 -256.58569336 363.00463867 C-256.09224434 360.56780097 -255.54198014 358.16139551 -254.9375 355.75 C-254.72770508 354.89801025 -254.51791016 354.04602051 -254.30175781 353.16821289 C-247.23508982 325.34766894 -235.55144126 299.70420112 -219 276.25 C-218.50411377 275.53714844 -218.00822754 274.82429688 -217.49731445 274.08984375 C-215.29049581 270.97002307 -213.16172503 268.22437169 -210.44140625 265.51953125 C-207.72172955 262.7105384 -206.30587313 261.01999975 -205.1875 257.25 C-205.83020784 250.52335435 -208.21984181 244.11482059 -210.37939453 237.75195312 C-211.91164308 233.00800051 -212.6081386 228.18585816 -213.1875 223.25 C-213.29707031 222.404375 -213.40664062 221.55875 -213.51953125 220.6875 C-217.91992963 181.25993052 -206.15616435 142.44968704 -183.171875 110.4140625 C-181.91210878 108.31697027 -181.91210878 108.31697027 -182.88085938 106.36328125 C-184.37668779 103.94401914 -186.0461469 102.23157198 -188.109375 100.2734375 C-188.88796875 99.51933594 -189.6665625 98.76523438 -190.46875 97.98828125 C-192.09472838 96.43176714 -193.72484469 94.87956237 -195.359375 93.33203125 C-205.54026703 83.43580232 -211.49174709 72.30176743 -212.390625 58.0234375 C-212.61740743 41.58171148 -208.0779619 28.56373913 -196.6640625 16.5390625 C-186.14066162 6.81238598 -174.66774565 2.93996449 -160.5625 2.8125 C-159.69189941 2.80226807 -158.82129883 2.79203613 -157.92431641 2.78149414 C-143.33467515 2.97827953 -131.5664604 9.23355386 -121.46679688 19.53125 C-120.65275391 20.3871875 -119.83871094 21.243125 -119 22.125 C-118.14341797 23.00414063 -117.28683594 23.88328125 -116.40429688 24.7890625 C-114.31997904 26.9316015 -112.24837447 29.08494382 -110.1875 31.25 C-109.32511719 30.77691406 -108.46273437 30.30382812 -107.57421875 29.81640625 C-73.5660125 11.31514609 -39.0079308 0.3654783 0 0 Z " fill="#797993" transform="translate(260.1875,19.75)"/>
<path d="M0 0 C0.76103027 -0.00942627 1.52206055 -0.01885254 2.30615234 -0.02856445 C7.56616452 0.00366452 7.56616452 0.00366452 9.8125 2.25 C8.85214844 2.33636719 7.89179688 2.42273438 6.90234375 2.51171875 C-39.53163425 7.10028463 -81.68838185 26.84622087 -115.1875 59.25 C-115.93725098 59.9610791 -115.93725098 59.9610791 -116.70214844 60.68652344 C-128.8321671 72.20119556 -138.14515218 85.24442148 -147.1875 99.25 C-147.74018555 100.10368164 -148.29287109 100.95736328 -148.86230469 101.83691406 C-174.79936124 141.98333676 -193.24283685 183.17310024 -183.1875 232.25 C-176.24385192 263.32950174 -162.01001108 290.87820278 -139.1875 313.25 C-134.37558052 311.68167069 -129.60961376 310.03924357 -124.875 308.25 C-108.5186086 302.28981287 -92.24562863 300.9284909 -75.0078125 300.9140625 C-73.18228048 300.90762051 -71.35674945 300.90089116 -69.53121948 300.89389038 C-65.73074954 300.8819981 -61.93037001 300.87820188 -58.12988281 300.87939453 C-53.2711603 300.87959886 -48.41301517 300.85214347 -43.55443001 300.81785011 C-39.7951085 300.79558953 -36.03592714 300.7915565 -32.27654648 300.79261398 C-30.48485168 300.79026268 -28.69315274 300.78146579 -26.90152359 300.76594925 C-24.39894197 300.7462776 -21.89762295 300.75212803 -19.39501953 300.76416016 C-18.66449875 300.75292114 -17.93397797 300.74168213 -17.18132019 300.73010254 C-11.67201553 300.79716106 -8.63498715 302.23596905 -4.1875 305.25 C-0.93632786 308.92067823 -0.72202025 312.37785699 -0.90234375 317.10546875 C-1.48563245 321.49211937 -3.51186067 323.65675571 -6.75 326.5 C-10.79224106 329.40212179 -13.11722424 329.38262424 -18.10546875 329.40771484 C-18.8181189 329.41279556 -19.53076904 329.41787628 -20.26501465 329.42311096 C-21.81788903 329.43382942 -23.370779 329.44244379 -24.92367554 329.44923019 C-27.39882306 329.46105128 -29.87379858 329.4805224 -32.34887695 329.50234985 C-39.38877416 329.56378539 -46.42866184 329.61756457 -53.46875 329.65136719 C-57.77657666 329.67260485 -62.08410234 329.7081521 -66.39175415 329.75212479 C-68.01799918 329.7660822 -69.64429762 329.77496019 -71.27059937 329.77817917 C-82.86716766 329.80351478 -93.80050327 331.08640971 -105.1875 333.25 C-107.18656425 333.58890006 -109.18620195 333.92455072 -111.1875 334.25 C-111.1875 334.91 -111.1875 335.57 -111.1875 336.25 C-110.64440186 336.42088135 -110.10130371 336.5917627 -109.54174805 336.76782227 C-103.86979177 338.59895495 -98.45407625 340.79404972 -93 343.1875 C-85.17421192 346.55061058 -77.47332721 349.21620605 -69.1875 351.25 C-68.35992187 351.46269531 -67.53234375 351.67539062 -66.6796875 351.89453125 C-57.36678988 354.14974513 -47.94528534 354.40295849 -38.40380859 354.45532227 C-37.27093414 354.46522186 -36.13805969 354.47512146 -34.97085571 354.48532104 C-31.25923692 354.51668564 -27.54760537 354.54159359 -23.8359375 354.56640625 C-21.24947799 354.58699744 -18.66302168 354.60799446 -16.0765686 354.62937927 C-9.98537639 354.67876755 -3.89416661 354.72408993 2.19707143 354.76740164 C9.13795027 354.81698465 16.07878456 354.87182385 23.01962018 354.92708123 C37.28387153 355.04052522 51.54816642 355.14744435 65.8125 355.25 C65.8125 355.58 65.8125 355.91 65.8125 356.25 C48.42572608 356.29696753 31.03897229 356.33210901 13.6521492 356.35362434 C5.57699701 356.36388508 -2.49811549 356.37784432 -10.57324219 356.40087891 C-17.6212445 356.42097379 -24.66921803 356.4337541 -31.7172482 356.43817699 C-35.44028622 356.44075748 -39.16324201 356.44671045 -42.88625336 356.46146011 C-58.75698061 356.52198547 -74.42754785 356.33155043 -90.1875 354.25 C-89.44258301 355.37776855 -89.44258301 355.37776855 -88.68261719 356.52832031 C-78.66509782 371.79284478 -78.66509782 371.79284478 -79.25 378.625 C-80.17593718 382.20529041 -80.44882286 383.06414168 -83.1875 385.25 C-87.47434181 387.05010241 -91.0834887 386.68887857 -95.3515625 384.9921875 C-102.19603496 381.41767378 -108.2593769 377.1677859 -114.1875 372.25 C-115.51554884 371.24299253 -116.84739254 370.24090351 -118.1875 369.25 C-118.084375 370.425625 -117.98125 371.60125 -117.875 372.8125 C-117.84548455 382.10986706 -122.00993996 394.95953293 -128.5 401.625 C-131.78510951 403.61134528 -133.4095075 403.87966542 -137.1875 403.25 C-141.71673341 400.37608518 -143.52421666 397.27251191 -145 392.25 C-145.31843872 391.18761108 -145.31843872 391.18761108 -145.64331055 390.10375977 C-148.63559361 378.51393102 -147.59647522 366.10776475 -147.1875 354.25 C-153.29964477 359.68716112 -159.19858656 365.18716452 -164.86328125 371.0859375 C-169.8842399 375.76091413 -173.6970814 376.9065237 -180.453125 376.7421875 C-184.7910176 375.96136683 -187.52450777 373.69179185 -190.1875 370.25 C-191.13246268 367.41511195 -191.4136999 365.39441383 -191.5 362.4375 C-191.53738281 361.60605469 -191.57476562 360.77460938 -191.61328125 359.91796875 C-190.5610069 353.32435972 -184.86900424 348.58151661 -180.3125 344.0625 C-179.66063721 343.41192627 -179.00877441 342.76135254 -178.3371582 342.09106445 C-172.85842216 336.7178282 -167.04416165 331.93460621 -160.91796875 327.32421875 C-158.21623159 325.36895084 -158.21623159 325.36895084 -156.1875 323.25 C-157.4559375 322.08984375 -157.4559375 322.08984375 -158.75 320.90625 C-161.70723241 318.1958541 -164.64950873 315.46976214 -167.58544922 312.73632812 C-168.85265402 311.56065869 -170.1296822 310.39557818 -171.41015625 309.234375 C-186.33540038 295.16471811 -196.90604623 276.22676174 -204.1875 257.25 C-204.53167969 256.47269531 -204.87585938 255.69539062 -205.23046875 254.89453125 C-219.39121442 222.50386011 -216.63054816 182.08526468 -204.48657227 149.6418457 C-199.0270483 135.71404751 -191.89396224 122.57095401 -183.171875 110.4140625 C-181.91210878 108.31697027 -181.91210878 108.31697027 -182.88085938 106.36328125 C-184.37668779 103.94401914 -186.0461469 102.23157198 -188.109375 100.2734375 C-189.27726562 99.14228516 -189.27726562 99.14228516 -190.46875 97.98828125 C-192.09472838 96.43176714 -193.72484469 94.87956237 -195.359375 93.33203125 C-205.54026703 83.43580232 -211.49174709 72.30176743 -212.390625 58.0234375 C-212.61740743 41.58171148 -208.0779619 28.56373913 -196.6640625 16.5390625 C-186.14066162 6.81238598 -174.66774565 2.93996449 -160.5625 2.8125 C-159.69189941 2.80226807 -158.82129883 2.79203613 -157.92431641 2.78149414 C-143.33467515 2.97827953 -131.5664604 9.23355386 -121.46679688 19.53125 C-120.65275391 20.3871875 -119.83871094 21.243125 -119 22.125 C-118.14341797 23.00414063 -117.28683594 23.88328125 -116.40429688 24.7890625 C-114.31997904 26.9316015 -112.24837447 29.08494382 -110.1875 31.25 C-109.32511719 30.77691406 -108.46273437 30.30382812 -107.57421875 29.81640625 C-73.5660125 11.31514609 -39.0079308 0.3654783 0 0 Z " fill="#BDD2D5" transform="translate(260.1875,19.75)"/>
<path d="M0 0 C0.66 0 1.32 0 2 0 C2.47308594 1.12535156 2.94617187 2.25070312 3.43359375 3.41015625 C14.0171143 28.17108839 29.04663027 48.87316613 50 66 C47.27940669 68.81376432 44.46437723 71.28744636 41.375 73.6875 C24.53468091 85.6650354 24.53468091 85.6650354 14.69921875 102.40234375 C14.64994425 109.20850212 14.64994425 109.20850212 18 115 C21.94407683 118.52891085 25.06399268 118.64602334 30.21484375 118.44921875 C38.50550006 117.11201612 44.50979994 108.63661003 50.07739258 102.85107422 C50.65513428 102.25568848 51.23287598 101.66030273 51.828125 101.046875 C52.3427832 100.50901367 52.85744141 99.97115234 53.38769531 99.41699219 C55.14302593 97.87430004 56.87575836 96.95446955 59 96 C58.97381592 96.78947021 58.94763184 97.57894043 58.9206543 98.39233398 C58.09854761 116.95657835 58.09854761 116.95657835 61.25 135.125 C61.45455811 135.79716553 61.65911621 136.46933105 61.86987305 137.16186523 C63.17139113 140.88238629 64.513254 143.09752306 68 145 C71.61449376 145.53832886 73.36087701 145.39168822 76.4921875 143.47265625 C79.73301918 140.27725679 80.80664874 137.26744305 82.1875 133 C82.44160645 132.25049072 82.69571289 131.50098145 82.95751953 130.72875977 C84.97139607 124.5828284 86.28108158 118.43308032 87 112 C90.0397476 113.38785803 92.38275343 115.04465115 94.9375 117.1875 C105.4463286 125.53000066 105.4463286 125.53000066 118.125 128.25 C121.08024558 127.58724272 121.9177513 127.0822487 124.125 124.875 C126.00984735 118.68193015 123.5289801 113.33496259 120.625 107.875 C120.32078125 107.28074219 120.0165625 106.68648438 119.703125 106.07421875 C117.92658965 102.63502852 116.00359185 99.31019026 114 96 C115.15434036 96.14129333 116.30868073 96.28258667 117.4980011 96.42816162 C132.99203948 98.18431607 148.4247754 98.29729453 163.99886107 98.26865101 C167.69791791 98.26349065 171.3969662 98.26830938 175.09602356 98.27142334 C181.29767676 98.27503303 187.49928188 98.27034221 193.70092773 98.26074219 C200.81912142 98.24984899 207.93720054 98.2534017 215.05539149 98.264395 C221.22760488 98.27353698 227.39978425 98.27472015 233.57200223 98.26951766 C237.23204852 98.26643742 240.89204135 98.26587769 244.55208397 98.27259064 C278.31357683 98.32606158 310.09048554 94.92848153 340 78 C340.98709961 77.44554199 340.98709961 77.44554199 341.99414062 76.87988281 C371.28208795 60.17018919 389.52858819 35.30568505 405 6 C408.85550018 9.63635985 411.86741138 13.41691848 414.8125 17.8125 C415.21919922 18.40998047 415.62589844 19.00746094 416.04492188 19.62304688 C417.03479703 21.07874564 418.01809735 22.53891174 419 24 C400.57358338 64.14762296 364.74190944 93.96850726 323.81689453 109.4140625 C300.63690467 117.83348555 277.2275679 119.28564739 252.75292397 119.30496025 C248.96434728 119.30867858 245.17601985 119.32554535 241.38749695 119.34571838 C231.9967147 119.39368545 222.60590653 119.42584102 213.21502686 119.44702148 C205.23400583 119.46502843 197.25322094 119.49440351 189.27229881 119.54106331 C186.76416171 119.5526829 184.25599155 119.55864339 181.74782753 119.55874443 C178.25006285 119.55893673 174.7528117 119.57721535 171.25512695 119.59936523 C170.22905334 119.59478806 169.20297974 119.59021088 168.14581299 119.585495 C161.02826661 119.65705628 155.21829086 120.48816323 149.4375 125 C147.23166383 127.71487528 145.5009005 130.39350818 143.6875 133.375 C139.07379356 140.80096569 133.5629611 146.42076889 125 149 C122.19244475 149.37429525 119.45327125 149.3812416 116.625 149.3125 C115.8812915 149.30412109 115.13758301 149.29574219 114.37133789 149.28710938 C109.02453224 149.17027761 104.15173482 148.49868649 99 147 C98.773125 147.680625 98.54625 148.36125 98.3125 149.0625 C94.30962077 158.02132494 88.55775501 161.72112249 80 166 C69.69448863 166.73438808 60.42844106 166.80976885 51.828125 160.375 C46.76803818 155.80950813 43.99356297 150.61691847 41.2265625 144.44140625 C40.23998667 141.87063318 40.23998667 141.87063318 38 141 C35.96056159 140.90606476 33.92070283 140.81694718 31.87988281 140.76049805 C24.17887137 140.53032987 17.69083515 140.17989252 11 136 C9.989375 135.443125 8.97875 134.88625 7.9375 134.3125 C0.28691905 128.28970223 -5.00193805 121.66562469 -7 112 C-8.1942834 100.97775943 -6.50312151 92.49553312 0.0625 83.5625 C2.19645406 80.93466138 4.44943806 78.53293238 6.8984375 76.203125 C7.39980225 75.72286865 7.90116699 75.2426123 8.41772461 74.74780273 C9.8745243 73.37197536 11.35670919 72.02317806 12.83984375 70.67578125 C15.23881882 68.15041585 15.23881882 68.15041585 15.53515625 64.84765625 C15.2491994 61.99805639 15.2491994 61.99805639 13.53125 60.3203125 C8.37617087 57.2867467 4.9877907 56.13080458 -1 57 C-9.66324435 61.33162217 -12.36848965 69.3045237 -15.35449219 78.00878906 C-18.63398316 88.12510087 -21.00876772 98.53651155 -23.1875 108.9375 C-23.34226807 109.6497876 -23.49703613 110.3620752 -23.65649414 111.09594727 C-26.8660015 127.13650308 -27.39546599 143.56754332 -27.42553711 159.87524414 C-27.43758759 162.9599205 -27.48714693 166.04268596 -27.53710938 169.12695312 C-27.64062941 181.87007834 -27.32200153 194.72491745 -17.85546875 204.5078125 C-11.28995009 209.78787171 -4.24590806 212.64821179 4 214 C4 214.33 4 214.66 4 215 C0.03478915 215.0499542 -3.93029631 215.08597787 -7.89575195 215.10986328 C-9.89736377 215.12470245 -11.89888812 215.15013361 -13.90039062 215.17578125 C-26.61877698 215.23985373 -36.26448792 213.87929128 -46.046875 205.1796875 C-54.18464142 196.58982294 -55.60598958 187.33088873 -55.49609375 175.85546875 C-55.49754898 174.60985672 -55.49900421 173.36424469 -55.50050354 172.08088684 C-55.49842972 168.78270216 -55.47754322 165.4852973 -55.44952393 162.18725586 C-55.42976769 158.9015029 -55.44811723 155.61585084 -55.45898438 152.33007812 C-55.44686163 137.64388744 -54.72264878 123.44355058 -52 109 C-51.70210571 107.39354614 -51.70210571 107.39354614 -51.39819336 105.75463867 C-50.90474434 103.31780097 -50.35448014 100.91139551 -49.75 98.5 C-49.54020508 97.64801025 -49.33041016 96.79602051 -49.11425781 95.91821289 C-41.36549389 65.41234685 -27.92189681 38.22518366 -9.37060547 12.88330078 C-8.07296498 11.10025861 -6.79979111 9.30264097 -5.53515625 7.49609375 C-4.82230469 6.48675781 -4.10945313 5.47742188 -3.375 4.4375 C-2.76398437 3.56996094 -2.15296875 2.70242188 -1.5234375 1.80859375 C-1.02070312 1.21175781 -0.51796875 0.61492187 0 0 Z " fill="#616173" transform="translate(55,277)"/>
<path d="M0 0 C1.42333132 -0.00627385 2.84666104 -0.01292145 4.26998901 -0.01991272 C8.92745851 -0.04085408 13.58492795 -0.05130897 18.24243164 -0.0612793 C19.85394367 -0.06533121 21.46545554 -0.06944825 23.07696724 -0.07362938 C30.65459245 -0.09266291 38.23220806 -0.10689518 45.80985254 -0.11524135 C54.51686546 -0.12499315 63.22362277 -0.15126638 71.93054575 -0.19174224 C78.68587248 -0.22205265 85.44112658 -0.23672444 92.19651991 -0.24002236 C96.21898345 -0.24235673 100.24117342 -0.25110348 104.26356316 -0.27648354 C108.05664224 -0.30003112 111.84927279 -0.3038925 115.64240646 -0.29372215 C117.66941469 -0.29300289 119.69640152 -0.31190647 121.72331238 -0.33178711 C134.04711396 -0.2632597 146.46448124 2.07508598 157.40258789 7.98950195 C158.06452148 8.3349707 158.72645508 8.68043945 159.40844727 9.03637695 C164.72364142 11.88436126 169.49164416 15.11676789 173.96508789 19.17700195 C174.64829102 19.7802832 175.33149414 20.38356445 176.03540039 21.00512695 C186.00829785 30.33338845 192.56420507 43.33807707 196.96508789 56.17700195 C196.96508789 57.16700195 196.96508789 58.15700195 196.96508789 59.17700195 C105.88508789 59.17700195 14.80508789 59.17700195 -79.03491211 59.17700195 C-78.05665014 53.30743011 -76.49137984 49.20179014 -73.97241211 43.92700195 C-73.36731812 42.658927 -73.36731812 42.658927 -72.75 41.36523438 C-69.57746296 34.91016243 -65.99692029 29.41688259 -61.03491211 24.17700195 C-60.41100586 23.47575195 -59.78709961 22.77450195 -59.14428711 22.05200195 C-54.11185278 16.65134072 -48.40672459 12.85160177 -42.03491211 9.17700195 C-41.36717773 8.78641602 -40.69944336 8.39583008 -40.01147461 7.9934082 C-27.28918221 1.09545642 -14.13500631 0.02744079 0 0 Z " fill="#F0F5F6" transform="translate(197.034912109375,432.822998046875)"/>
<path d="M0 0 C9.00840844 6.55020714 14.09254528 14.91785249 17.47265625 25.45703125 C18.08738354 29.60734737 18.10823713 33.64661879 18.03125 37.8359375 C18.02775291 39.5359214 18.02775291 39.5359214 18.02418518 41.27024841 C18.01451291 43.64760959 17.9928788 46.02495005 17.9597168 48.40209961 C17.91023392 52.01386189 17.8982216 55.62425688 17.89257812 59.23632812 C17.87849107 61.56121221 17.8622863 63.88608463 17.84375 66.2109375 C17.83570595 67.80827477 17.83570595 67.80827477 17.82749939 69.43788147 C17.50911095 89.78174976 10.48451201 107.06257137 -3.66796875 121.69140625 C-18.70543992 136.23584558 -37.51084967 140.76962437 -57.83984375 140.95703125 C-59.0198999 140.97548096 -60.19995605 140.99393066 -61.41577148 141.01293945 C-73.24795378 140.9289761 -82.11512412 137.48383569 -91.52734375 130.45703125 C-92.55859375 129.73515625 -93.58984375 129.01328125 -94.65234375 128.26953125 C-101.98434615 121.8947625 -107.8152766 110.9421333 -108.734375 101.28076172 C-109.94694146 80.08250161 -102.47009168 67.65687724 -88.88085938 52.02832031 C-86.84475918 49.66462246 -84.87291066 47.25045427 -82.90234375 44.83203125 C-82.1753125 43.94 -81.44828125 43.04796875 -80.69921875 42.12890625 C-79.62414062 40.80632812 -79.62414062 40.80632812 -78.52734375 39.45703125 C-73.26976413 32.98907359 -67.96541484 26.568861 -62.5456543 20.23632812 C-59.73014356 16.93290077 -57.07601195 13.55130513 -54.46484375 10.08203125 C-41.2410635 -6.50829183 -18.33392573 -11.19304585 0 0 Z " fill="#7A7A93" transform="translate(207.52734375,112.54296875)"/>
<path d="M0 0 C2.93349685 1.75201964 5.46778392 3.71105359 8 6 C8.85464844 6.76957031 8.85464844 6.76957031 9.7265625 7.5546875 C14.06424054 11.69429805 17.78739995 16.30858528 21.54296875 20.97265625 C24.17048714 24.21005967 26.85814523 27.38940283 29.5625 30.5625 C33.43233905 35.11188811 37.20080238 39.72519482 40.90625 44.41015625 C42.91944455 46.90035771 44.98281858 49.3363167 47.06787109 51.76611328 C60.8426599 67.84217945 69.21902799 81.09384054 68.22216797 102.62353516 C67.02375945 115.44255554 58.67098679 125.26068017 49.25 133.28125 C39.42211763 140.78866015 28.20600505 142.48912288 16.125 142.3125 C15.03058594 142.31572266 13.93617188 142.31894531 12.80859375 142.32226562 C-8.06155857 142.1864244 -23.9187641 135.6516325 -39.1875 121.3125 C-50.36372124 109.67503788 -57.97539879 93.71383122 -58.19287109 77.39038086 C-58.20893402 76.28830795 -58.22499695 75.18623505 -58.24154663 74.05076599 C-58.28637442 69.01017101 -58.32707628 63.96970326 -58.35009766 58.92895508 C-58.36662159 56.28042797 -58.39386384 53.6319448 -58.43212891 50.98364258 C-58.48725415 47.14381012 -58.50882935 43.30502012 -58.5234375 39.46484375 C-58.54610687 38.29565903 -58.56877625 37.1264743 -58.59213257 35.92185974 C-58.56197305 24.02606289 -54.71518751 14.74411938 -46.46875 6.1953125 C-33.36035173 -5.46120622 -15.77118479 -7.61448832 0 0 Z " fill="#7A7A93" transform="translate(352,111)"/>
<path d="M0 0 C0.79917847 -0.0065712 1.59835693 -0.0131424 2.42175293 -0.01991272 C5.05013134 -0.03952478 7.67845307 -0.05127824 10.30688477 -0.0612793 C11.20834795 -0.06535482 12.10981113 -0.06943035 13.03859138 -0.07362938 C17.80583589 -0.09443379 22.57305205 -0.10876241 27.34033203 -0.11816406 C32.25415004 -0.12924542 37.16751737 -0.16368125 42.0811758 -0.20333576 C45.87051725 -0.22950721 49.65975101 -0.23785613 53.44917488 -0.24144554 C55.26041792 -0.24630636 57.07165631 -0.25790596 58.88281059 -0.27648354 C61.41963264 -0.30089752 63.95528333 -0.29990672 66.4921875 -0.29296875 C67.2337056 -0.30577881 67.97522369 -0.31858887 68.73921204 -0.33178711 C74.29015005 -0.27667022 77.33459257 1.13529077 81.81079102 4.17700195 C85.06196316 7.84768018 85.27627077 11.30485894 85.09594727 16.0324707 C84.51265857 20.41912132 82.48643034 22.58375767 79.24829102 25.42700195 C75.20604996 28.32912374 72.88106678 28.3096262 67.89282227 28.3347168 C67.18017212 28.33979752 66.46752197 28.34487823 65.73327637 28.35011292 C64.18040199 28.36083137 62.62751202 28.36944574 61.07461548 28.37623215 C58.59946796 28.38805323 56.12449243 28.40752436 53.64941406 28.42935181 C46.60951686 28.49078734 39.56962917 28.54456653 32.52954102 28.57836914 C28.22171435 28.59960681 23.91418868 28.63515406 19.60653687 28.67912674 C17.98029183 28.69308416 16.35399339 28.70196214 14.72769165 28.70518112 C3.13112336 28.73051673 -7.80221225 30.01341167 -19.18920898 32.17700195 C-21.18827323 32.51590202 -23.18791094 32.85155268 -25.18920898 33.17700195 C-25.18920898 33.83700195 -25.18920898 34.49700195 -25.18920898 35.17700195 C-24.64611084 35.3478833 -24.1030127 35.51876465 -23.54345703 35.69482422 C-17.87150075 37.52595691 -12.45578523 39.72105167 -7.00170898 42.11450195 C0.8240791 45.47761253 8.52496381 48.143208 16.81079102 50.17700195 C17.63836914 50.38969727 18.46594727 50.60239258 19.31860352 50.8215332 C28.63150113 53.07674709 38.05300567 53.32996044 47.59448242 53.38232422 C48.72735687 53.39222382 49.86023132 53.40212341 51.0274353 53.412323 C54.73905409 53.44368759 58.45068564 53.46859555 62.16235352 53.4934082 C64.74881303 53.5139994 67.33526934 53.53499641 69.92172241 53.55638123 C76.01291462 53.60576951 82.10412441 53.65109189 88.19536245 53.69440359 C95.13624129 53.74398661 102.07707558 53.79882581 109.0179112 53.85408318 C123.28216255 53.96752718 137.54645743 54.07444631 151.81079102 54.17700195 C151.81079102 54.50700195 151.81079102 54.83700195 151.81079102 55.17700195 C134.42401709 55.22396948 117.0372633 55.25911096 99.65044022 55.2806263 C91.57528803 55.29088703 83.50017552 55.30484627 75.42504883 55.32788086 C68.37704652 55.34797575 61.32907298 55.36075606 54.28104281 55.36517894 C50.55800479 55.36775943 46.835049 55.37371241 43.11203766 55.38846207 C27.2413104 55.44898743 11.57074317 55.25855238 -4.18920898 53.17700195 C-3.44429199 54.30477051 -3.44429199 54.30477051 -2.68432617 55.45532227 C7.33319319 70.71984674 7.33319319 70.71984674 6.74829102 77.55200195 C5.82235384 81.13229237 5.54946815 81.99114363 2.81079102 84.17700195 C-1.4760508 85.97710436 -5.08519769 85.61588052 -9.35327148 83.91918945 C-16.19774394 80.34467573 -22.26108589 76.09478785 -28.18920898 71.17700195 C-29.51725783 70.16999448 -30.84910152 69.16790547 -32.18920898 68.17700195 C-32.08608398 69.35262695 -31.98295898 70.52825195 -31.87670898 71.73950195 C-31.84719353 81.03686902 -36.01164894 93.88653488 -42.50170898 100.55200195 C-45.78681849 102.53834724 -47.41121649 102.80666737 -51.18920898 102.17700195 C-55.71844239 99.30308713 -57.52592565 96.19951387 -59.00170898 91.17700195 C-59.21400146 90.46874268 -59.42629395 89.7604834 -59.64501953 89.03076172 C-62.63730259 77.44093297 -61.59818421 65.0347667 -61.18920898 53.17700195 C-67.30135376 58.61416307 -73.20029555 64.11416647 -78.86499023 70.01293945 C-83.88594888 74.68791608 -87.69879039 75.83352565 -94.45483398 75.66918945 C-98.79272658 74.88836879 -101.52621675 72.6187938 -104.18920898 69.17700195 C-105.13417167 66.3421139 -105.41540889 64.32141578 -105.50170898 61.36450195 C-105.5390918 60.53305664 -105.57647461 59.70161133 -105.61499023 58.8449707 C-104.56296052 52.25289458 -98.87151305 47.50643965 -94.31420898 42.98950195 C-93.65437012 42.33457764 -92.99453125 41.67965332 -92.31469727 41.00488281 C-70.13895026 19.34478936 -44.46117609 7.05905497 -14.18920898 1.17700195 C-13.30301376 1.00300369 -12.41681854 0.82900543 -11.50376892 0.6497345 C-7.65692894 0.10108657 -3.87663503 0.01401924 0 0 Z " fill="#6FBE6B" transform="translate(174.189208984375,320.822998046875)"/>
<path d="M0 0 C10.59712985 8.12528201 16.26940499 20.7493687 18.81640625 33.484375 C19.91533917 47.77050301 17.02330131 61.69743859 8.1328125 73.24609375 C5.85944016 75.83648682 3.49460014 78.28827408 1.06640625 80.734375 C-0.06694457 81.90442672 -1.19972267 83.07503338 -2.33203125 84.24609375 C-3.5102837 85.45192474 -4.68996342 86.65636281 -5.87109375 87.859375 C-6.43900635 88.44066162 -7.00691895 89.02194824 -7.59204102 89.62084961 C-9.00067053 91.03160344 -10.46303611 92.38829785 -11.93359375 93.734375 C-12.59359375 93.734375 -13.25359375 93.734375 -13.93359375 93.734375 C-15.50244141 91.68994141 -15.50244141 91.68994141 -17.34765625 88.8359375 C-18.02699219 87.79824219 -18.70632813 86.76054688 -19.40625 85.69140625 C-20.11652344 84.59183594 -20.82679688 83.49226563 -21.55859375 82.359375 C-29.15191711 70.6345999 -37.38729861 59.93431773 -46.93359375 49.734375 C-47.805 48.79722656 -48.67640625 47.86007813 -49.57421875 46.89453125 C-59.70428975 36.25549111 -71.36483724 27.31556308 -83.93359375 19.734375 C-78.57632823 7.87706871 -64.5419842 -2.36659959 -53.0703125 -7.5625 C-34.5878436 -14.42003611 -16.02557945 -10.48947018 0 0 Z " fill="#7A7993" transform="translate(451.93359375,33.265625)"/>
<path d="M0 0 C0.87060059 -0.01023193 1.74120117 -0.02046387 2.63818359 -0.03100586 C17.22782485 0.16577953 28.9960396 6.42105386 39.09570312 16.71875 C39.90974609 17.5746875 40.72378906 18.430625 41.5625 19.3125 C42.41908203 20.19164063 43.27566406 21.07078125 44.15820312 21.9765625 C46.24252096 24.1191015 48.31412553 26.27244382 50.375 28.4375 C49.03583351 32.45499947 47.15287664 33.14184822 43.625 35.4375 C36.40097991 40.25753848 29.91087237 45.73488626 23.375 51.4375 C22.60027344 52.08847656 21.82554688 52.73945312 21.02734375 53.41015625 C17.10796478 56.72539203 13.62913417 60.20014163 10.32421875 64.12890625 C8.92189397 65.78977588 7.48208704 67.41926002 6.01953125 69.02734375 C-3.38063178 79.59384902 -12.29035104 91.76820209 -18.625 104.4375 C-24.10408884 102.06080402 -27.834693 97.59645745 -32 93.4375 C-32.83789062 92.62410156 -33.67578125 91.81070313 -34.5390625 90.97265625 C-45.75335346 79.81126288 -51.65551252 67.72534214 -51.875 51.8125 C-51.71687649 36.77495409 -46.44058296 24.61884158 -36.1015625 13.7265625 C-25.57816162 3.99988598 -14.10524565 0.12746449 0 0 Z " fill="#7A7A92" transform="translate(99.625,22.5625)"/>
<path d="M0 0 C0.79917847 -0.0065712 1.59835693 -0.0131424 2.42175293 -0.01991272 C5.05013134 -0.03952478 7.67845307 -0.05127824 10.30688477 -0.0612793 C11.20834795 -0.06535482 12.10981113 -0.06943035 13.03859138 -0.07362938 C17.80583589 -0.09443379 22.57305205 -0.10876241 27.34033203 -0.11816406 C32.25415004 -0.12924542 37.16751737 -0.16368125 42.0811758 -0.20333576 C45.87051725 -0.22950721 49.65975101 -0.23785613 53.44917488 -0.24144554 C55.26041792 -0.24630636 57.07165631 -0.25790596 58.88281059 -0.27648354 C61.41963264 -0.30089752 63.95528333 -0.29990672 66.4921875 -0.29296875 C67.2337056 -0.30577881 67.97522369 -0.31858887 68.73921204 -0.33178711 C74.29015005 -0.27667022 77.33459257 1.13529077 81.81079102 4.17700195 C85.06196316 7.84768018 85.27627077 11.30485894 85.09594727 16.0324707 C84.51265857 20.41912132 82.48643034 22.58375767 79.24829102 25.42700195 C75.20604996 28.32912374 72.88106678 28.3096262 67.89282227 28.3347168 C67.18017212 28.33979752 66.46752197 28.34487823 65.73327637 28.35011292 C64.18040199 28.36083137 62.62751202 28.36944574 61.07461548 28.37623215 C58.59946796 28.38805323 56.12449243 28.40752436 53.64941406 28.42935181 C46.60951686 28.49078734 39.56962917 28.54456653 32.52954102 28.57836914 C28.22171435 28.59960681 23.91418868 28.63515406 19.60653687 28.67912674 C17.98029183 28.69308416 16.35399339 28.70196214 14.72769165 28.70518112 C-7.63038378 28.75402794 -27.23550951 32.87205318 -46.84521484 43.87451172 C-47.6122876 44.30046631 -48.37936035 44.7264209 -49.16967773 45.1652832 C-50.18904419 45.74596558 -50.18904419 45.74596558 -51.22900391 46.33837891 C-53.18920898 47.17700195 -53.18920898 47.17700195 -57.18920898 47.17700195 C-59.34502975 45.03897338 -61.22367658 42.95943702 -63.12670898 40.61450195 C-63.63911133 40.00541992 -64.15151367 39.39633789 -64.67944336 38.76879883 C-68.05980389 34.70978904 -71.16393473 30.50598556 -74.18920898 26.17700195 C-61.16735165 15.25937918 -44.71093561 7.87032491 -28.18920898 4.17700195 C-26.95041992 3.8934082 -25.71163086 3.60981445 -24.43530273 3.31762695 C-21.02594058 2.56394105 -17.6167118 1.8429895 -14.18920898 1.17700195 C-13.30301376 1.00300369 -12.41681854 0.82900543 -11.50376892 0.6497345 C-7.65692894 0.10108657 -3.87663503 0.01401924 0 0 Z " fill="#A4E686" transform="translate(174.189208984375,320.822998046875)"/>
<path d="M0 0 C0.83491974 -0.01283524 1.66983948 -0.02567047 2.53005981 -0.03889465 C3.43521332 -0.04628159 4.34036682 -0.05366852 5.27294922 -0.0612793 C6.20557587 -0.06935104 7.13820251 -0.07742279 8.09909058 -0.08573914 C10.07792295 -0.0995876 12.0567793 -0.11030633 14.03564453 -0.11816406 C17.04490387 -0.13531153 20.0530458 -0.17918275 23.06201172 -0.22338867 C24.98648282 -0.23352148 26.91096326 -0.24203574 28.83544922 -0.2487793 C30.1749614 -0.27504143 30.1749614 -0.27504143 31.54153442 -0.30183411 C38.30807482 -0.27864927 43.83517251 1.20242152 48.82763672 5.96606445 C52.13157594 11.35790971 52.87316478 15.9131788 51.95263672 22.17700195 C49.24346073 31.20758857 38.7930888 37.674703 30.95263672 42.17700195 C24.61774964 45.41157821 18.64890466 46.24580776 11.68701172 44.66137695 C5.8610216 42.69365844 1.03054344 39.35969841 -3.92236328 35.80200195 C-4.56512207 35.34398193 -5.20788086 34.88596191 -5.87011719 34.4140625 C-10.7213842 30.79442796 -14.09215291 27.04263306 -16.04736328 21.17700195 C-16.65584352 15.19361295 -15.91056958 11.89236987 -12.48486328 6.9387207 C-8.95928197 2.61796752 -5.55066863 0.07431046 0 0 Z " fill="#7A7A93" transform="translate(241.04736328125,241.822998046875)"/>
<path d="M0 0 C-2.79215064 2.26822306 -5.30391211 3.61925403 -8.6875 4.8125 C-21.66975855 9.88339688 -29.68521091 18.51262221 -35.7734375 30.91015625 C-40.20601599 42.07630142 -41.31904857 56.63795854 -37.375 68.125 C-36.63871378 69.77583122 -35.84695104 71.40311708 -35 73 C-34.32904297 74.28583984 -34.32904297 74.28583984 -33.64453125 75.59765625 C-30.41476496 81.33850089 -26.51362506 86.21929653 -22 91 C-23.64178265 95.77609498 -26.26546702 99.79382904 -29 104 C-34.47908884 101.62330402 -38.209693 97.15895745 -42.375 93 C-43.21289062 92.18660156 -44.05078125 91.37320313 -44.9140625 90.53515625 C-56.12835346 79.37376288 -62.03051252 67.28784214 -62.25 51.375 C-62.09187649 36.33745409 -56.81558296 24.18134158 -46.4765625 13.2890625 C-32.59304417 0.45666228 -17.99398924 -0.65745323 0 0 Z " fill="#616173" transform="translate(110,23)"/>
<path d="M0 0 C3.4972053 1.09639073 6.88514987 2.34252088 10.2578125 3.76953125 C18.91579491 7.421252 27.4963266 10.66184345 36.625 12.9375 C37.41664551 13.13641846 38.20829102 13.33533691 39.02392578 13.5402832 C48.54017843 15.78709301 58.03824757 16.15183912 67.78369141 16.20532227 C68.91656586 16.21522186 70.04944031 16.22512146 71.21664429 16.23532104 C74.92826308 16.26668564 78.63989463 16.29159359 82.3515625 16.31640625 C84.93802201 16.33699744 87.52447832 16.35799446 90.1109314 16.37937927 C96.20212361 16.42876755 102.29333339 16.47408993 108.38457143 16.51740164 C115.32545027 16.56698465 122.26628456 16.62182385 129.20712018 16.67708123 C143.47137153 16.79052522 157.73566642 16.89744435 172 17 C172 17.33 172 17.66 172 18 C154.61322608 18.04696753 137.22647229 18.08210901 119.8396492 18.10362434 C111.76449701 18.11388508 103.68938451 18.12784432 95.61425781 18.15087891 C88.5662555 18.17097379 81.51828197 18.1837541 74.4702518 18.18817699 C70.74721378 18.19075748 67.02425799 18.19671045 63.30124664 18.21146011 C47.43051939 18.27198547 31.75995215 18.08155043 16 16 C16.74491699 17.12776855 16.74491699 17.12776855 17.50488281 18.27832031 C27.52240218 33.54284478 27.52240218 33.54284478 26.9375 40.375 C26.01156282 43.95529041 25.73867714 44.81414168 23 47 C18.71315819 48.80010241 15.1040113 48.43887857 10.8359375 46.7421875 C3.99146504 43.16767378 -2.0718769 38.9177859 -8 34 C-9.32804884 32.99299253 -10.65989254 31.99090351 -12 31 C-11.896875 32.175625 -11.79375 33.35125 -11.6875 34.5625 C-11.65798455 43.85986706 -15.82243996 56.70953293 -22.3125 63.375 C-25.59760951 65.36134528 -27.2220075 65.62966542 -31 65 C-35.45630003 62.13865835 -36.88305062 59.67219162 -38.3125 54.625 C-38.63863281 53.52414062 -38.96476562 52.42328125 -39.30078125 51.2890625 C-40.00551199 47.97407209 -40.40884772 45.36725142 -40 42 C-28.5391948 25.63928533 -6.29715112 17.5331591 12 12 C11.46890625 11.46890625 10.9378125 10.9378125 10.390625 10.390625 C6.92708333 6.92708333 3.46354167 3.46354167 0 0 Z " fill="#A3E585" transform="translate(154,358)"/>
<path d="M0 0 C4.96864628 3.45688778 8.83297818 8.18643455 10.75 13.9375 C11.67938172 22.51523616 9.97332236 27.92756869 4.62109375 34.5859375 C-1.97269459 42.16825094 -1.97269459 42.16825094 -6.25 43.9375 C-6.65089844 43.40382812 -7.05179687 42.87015625 -7.46484375 42.3203125 C-15.56143946 31.70844783 -24.75835046 22.28460665 -34.25 12.9375 C-31.60382102 6.90259183 -26.59104437 2.33312261 -21 -1 C-13.8966548 -3.74447428 -6.77568275 -3.86995726 0 0 Z " fill="#FB8087" transform="translate(427.25,58.0625)"/>
<path d="M0 0 C5.9516107 2.65589118 10.26191291 7.70789263 14.61328125 12.421875 C13.15679066 15.90512234 11.30943243 17.76965956 8.42578125 20.171875 C4.04562611 23.96708097 0.32078165 27.98021611 -3.38671875 32.421875 C-4.34552962 33.5540842 -5.3052385 34.68553326 -6.265625 35.81640625 C-8.97884134 39.01304161 -11.68429757 42.21610955 -14.38671875 45.421875 C-29.51532395 33.0719932 -29.51532395 33.0719932 -30.7578125 23.58984375 C-30.91624753 16.4789068 -30.19937525 11.79720527 -25.38671875 6.421875 C-17.89060482 -0.9294642 -10.54184612 -2.55350773 0 0 Z " fill="#FB8087" transform="translate(111.38671875,56.578125)"/>
<path d="M0 0 C1.81640625 2.19140625 1.81640625 2.19140625 3 4 C2.47535156 3.855625 1.95070313 3.71125 1.41015625 3.5625 C-13.54073412 -0.01974328 -27.61430576 1.16759421 -41.125 8.6875 C-50.5431103 14.69041695 -58.22237678 23.07344357 -66 31 C-71.53192638 27.93978541 -76.77383293 24.5552157 -82 21 C-76.64273448 9.14269371 -62.60839045 -1.10097459 -51.13671875 -6.296875 C-34.13178291 -12.60620317 -14.88836445 -10.13201508 0 0 Z " fill="#616173" transform="translate(450,32)"/>
<path d="M0 0 C1.45702511 0.01004845 2.91405691 0.01917101 4.37109375 0.02734375 C7.91436539 0.04749888 11.45669381 0.08667097 15 0.125 C15 9.035 15 17.945 15 27.125 C32.16 27.125 49.32 27.125 67 27.125 C67 27.455 67 27.785 67 28.125 C25.42 28.62 25.42 28.62 -17 29.125 C-22.625 10 -22.625 10 -24 2.125 C-16.12417789 -0.47976408 -8.19387967 -0.09854223 0 0 Z " fill="#A5E688" transform="translate(182,320.875)"/>
<path d="M0 0 C4.07501492 0.43197185 5.68106265 2.47127638 8.3125 5.5 C9.09109375 6.39460938 9.8696875 7.28921875 10.671875 8.2109375 C13.88679458 12.06236801 16.98692067 15.9890198 20 20 C18.40370008 23.94874191 15.67066525 26.62687524 12.6875 29.5625 C12.21376953 30.04396484 11.74003906 30.52542969 11.25195312 31.02148438 C6.74879341 35.50000299 3.1075809 38.42318952 -3.375 38.5625 C-8.50780385 38.43764801 -11.11314216 37.1367881 -14.7578125 33.60546875 C-17.02201773 30.67909029 -17.20820606 27.7609396 -17.3125 24.1875 C-17.34988281 23.35605469 -17.38726562 22.52460938 -17.42578125 21.66796875 C-16.39866112 15.23197745 -10.91945119 10.52704763 -6.5 6.0625 C-5.93152344 5.46115234 -5.36304687 4.85980469 -4.77734375 4.24023438 C-3.09375 2.53515625 -3.09375 2.53515625 0 0 Z " fill="#A2E485" transform="translate(86,358)"/>
<path d="M0 0 C3.72683492 3.77719755 6.14040373 6.87978268 6.25 12.25 C6.17026151 17.22568207 5.17666643 20.80549204 1.5703125 24.44140625 C-3.27429833 28.67140227 -7.19556835 29.41651161 -13.42578125 29.34375 C-17.58043527 28.78895553 -20.14097727 26.98609041 -23 24 C-26.77754951 18.88202969 -26.83028914 13.13136593 -26 7 C-23.73466562 2.46933124 -21.02987095 -0.80969356 -16.25 -2.6875 C-9.95650618 -3.56159636 -5.39492453 -3.59661636 0 0 Z " fill="#EFF4F5" transform="translate(185,163)"/>
<path d="M0 0 C3.83084349 2.61193874 6.65161815 5.67823629 8.75 9.875 C9.34057744 15.55362925 9.04370905 20.04422672 5.75 24.875 C1.58931857 29.06978538 -2.08169556 31.01106224 -8 31.25 C-12.60212799 31.19625252 -15.33737064 30.32086455 -18.84375 27.34375 C-22.55507951 23.46747251 -23.49221916 19.72893072 -23.875 14.5 C-23.74020205 9.01072804 -21.9316408 6.29779748 -18.171875 2.43359375 C-12.60048771 -2.08466545 -6.66943939 -2.3086521 0 0 Z " fill="#EFF4F5" transform="translate(351.25,161.125)"/>
<path d="M0 0 C0.80179688 0.00451172 1.60359375 0.00902344 2.4296875 0.01367188 C4.41149006 0.02546832 6.39325433 0.04340395 8.375 0.0625 C7.60671875 0.65933594 6.8384375 1.25617188 6.046875 1.87109375 C2.17974593 5.04281803 -1.01345772 8.22787315 -2.625 13.0625 C-3.0600955 18.60996761 -2.61893583 23.33190048 0.375 28.0625 C5.68364913 33.37114913 11.99601898 37.23223046 18.5390625 40.8359375 C19.14492188 41.24070312 19.75078125 41.64546875 20.375 42.0625 C20.375 42.7225 20.375 43.3825 20.375 44.0625 C16.2691787 46.11541065 11.46625564 45.52643043 7.0859375 44.5546875 C1.27756455 42.55380986 -3.54986484 39.24320563 -8.5 35.6875 C-9.14275879 35.22947998 -9.78551758 34.77145996 -10.44775391 34.29956055 C-15.29902092 30.67992601 -18.66978963 26.9281311 -20.625 21.0625 C-21.23348024 15.079111 -20.4882063 11.77786791 -17.0625 6.82421875 C-11.94102072 0.54762322 -7.69229631 -0.08116871 0 0 Z " fill="#636375" transform="translate(245.625,241.9375)"/>
<path d="M0 0 C2.18017465 4.86973591 3.35148558 9.96430492 4.625 15.125 C4.96917969 16.48431641 4.96917969 16.48431641 5.3203125 17.87109375 C5.536875 18.74121094 5.7534375 19.61132812 5.9765625 20.5078125 C6.17330566 21.29816895 6.37004883 22.08852539 6.57275391 22.90283203 C7 25 7 25 7 28 C5.0636296 28.50435694 3.12585854 29.00333874 1.1875 29.5 C0.10855469 29.7784375 -0.97039062 30.056875 -2.08203125 30.34375 C-5 31 -5 31 -8 31 C-8.98411806 27.4596903 -9.96140579 23.91752957 -10.9375 20.375 C-11.21529297 19.37597656 -11.49308594 18.37695312 -11.77929688 17.34765625 C-13.08846114 12.58419109 -14.33855304 7.90642933 -15 3 C-13.44033782 2.491217 -11.87710759 1.99336531 -10.3125 1.5 C-9.44238281 1.2215625 -8.57226562 0.943125 -7.67578125 0.65625 C-5.00608323 0.00149195 -2.73603316 -0.11831495 0 0 Z " fill="#71BF6C" transform="translate(158,323)"/>
<path d="M0 0 C5.28 0 10.56 0 16 0 C16 8.91 16 17.82 16 27 C10.72 27 5.44 27 0 27 C0 18.09 0 9.18 0 0 Z " fill="#70BF6B" transform="translate(197,321)"/>
<path d="M0 0 C3.4972053 1.09639073 6.88514987 2.34252088 10.2578125 3.76953125 C18.91579491 7.421252 27.4963266 10.66184345 36.625 12.9375 C37.41664551 13.13641846 38.20829102 13.33533691 39.02392578 13.5402832 C48.54017843 15.78709301 58.03824757 16.15183912 67.78369141 16.20532227 C68.91656586 16.21522186 70.04944031 16.22512146 71.21664429 16.23532104 C74.92826308 16.26668564 78.63989463 16.29159359 82.3515625 16.31640625 C84.93802201 16.33699744 87.52447832 16.35799446 90.1109314 16.37937927 C96.20212361 16.42876755 102.29333339 16.47408993 108.38457143 16.51740164 C115.32545027 16.56698465 122.26628456 16.62182385 129.20712018 16.67708123 C143.47137153 16.79052522 157.73566642 16.89744435 172 17 C172 17.33 172 17.66 172 18 C154.56141386 18.04691738 137.12284769 18.08208487 119.68421268 18.10362434 C111.58543335 18.11389552 103.48669346 18.12787535 95.38793945 18.15087891 C88.32128811 18.17094117 81.25466535 18.18374657 74.18798631 18.18817699 C70.45330698 18.19076286 66.71870936 18.19675174 62.98405647 18.21146011 C19.11952326 18.37686267 19.11952326 18.37686267 10.5859375 10.87890625 C9.85632813 10.11449219 9.12671875 9.35007812 8.375 8.5625 C7.27285156 7.41974609 7.27285156 7.41974609 6.1484375 6.25390625 C5.43945312 5.51011719 4.73046875 4.76632812 4 4 C2.67009865 2.66324349 1.33786587 1.32878533 0 0 Z " fill="#AEBDC3" transform="translate(154,358)"/>
<path d="M0 0 C4.95 0 9.9 0 15 0 C15.13548815 2.73083902 15.23429855 5.45491807 15.3125 8.1875 C15.3753418 9.34088867 15.3753418 9.34088867 15.43945312 10.51757812 C15.53194072 14.82749996 15.39929635 16.48279063 12.671875 20.015625 C10 22 10 22 6.9375 22.5625 C3.19098031 21.84508134 2.23019517 21.09564404 0 18 C-0.48974559 14.90203079 -0.37701038 11.87640935 -0.25 8.75 C-0.23195312 7.90953125 -0.21390625 7.0690625 -0.1953125 6.203125 C-0.14830798 4.13492605 -0.07656724 2.06731559 0 0 Z " fill="#BDD3D6" transform="translate(252,286)"/>
</svg>
